<svg fill="#764abc" xmlns="http://www.w3.org/2000/svg"  viewBox="0 0 50 50" width="50px" height="50px"><path d="M 24 2 C 16.832 2 11 10.292328 11 20.486328 C 11 25.581015 12.484998 30.154506 14.841797 33.492188 C 14.278671 34.225786 14 35.114721 14 36 C 14 36.972222 14.318681 37.957881 15.001953 38.726562 C 15.685226 39.495244 16.75 40 18 40 C 19.25 40 20.314774 39.495244 20.998047 38.726562 C 21.681319 37.957881 22 36.972222 22 36 C 22 35.027778 21.681319 34.042119 20.998047 33.273438 C 20.314774 32.504756 19.25 32 18 32 C 17.417923 32 16.88232 32.117915 16.400391 32.3125 C 14.317709 29.317793 13 25.144037 13 20.486328 C 13 11.395328 17.935 4 24 4 C 29.419 4 33.923219 9.9093906 34.824219 17.650391 C 35.531219 17.919391 36.232734 18.222641 36.927734 18.556641 C 36.246734 9.2666406 30.71 2 24 2 z M 22 15 C 20.75 15 19.685226 15.504756 19.001953 16.273438 C 18.318681 17.042119 18 18.027778 18 19 C 18 19.972222 18.318681 20.957881 19.001953 21.726562 C 19.685226 22.495244 20.75 23 22 23 C 23.25 23 24.314774 22.495244 24.998047 21.726562 C 25.425092 21.246137 25.694239 20.67767 25.847656 20.083984 C 29.425245 19.930128 33.445887 20.987107 37.142578 23.203125 C 45.036578 27.935125 49.012859 36.186703 46.005859 41.595703 C 44.931859 43.526703 43.056938 44.897594 40.585938 45.558594 C 37.123937 46.486594 32.8715 45.916078 28.8125 44.080078 C 28.2265 44.551078 27.60675 44.996734 26.96875 45.427734 C 30.29375 47.106734 33.8125 47.996094 37.0625 47.996094 C 38.4735 47.996094 39.833516 47.830234 41.103516 47.490234 C 44.110516 46.685234 46.410906 44.982406 47.753906 42.566406 C 51.277906 36.224406 46.978922 26.769281 38.169922 21.488281 C 34.19387 19.103202 29.825568 17.936523 25.886719 18.064453 C 25.744166 17.416386 25.4608 16.794034 24.998047 16.273438 C 24.314774 15.504756 23.25 15 22 15 z M 22 17 C 22.749999 17 23.185226 17.245244 23.501953 17.601562 C 23.81868 17.957881 24 18.472222 24 19 C 24 19.527778 23.81868 20.042119 23.501953 20.398438 C 23.185226 20.754756 22.749999 21 22 21 C 21.250001 21 20.814774 20.754756 20.498047 20.398438 C 20.18132 20.042119 20 19.527778 20 19 C 20 18.472222 20.18132 17.957881 20.498047 17.601562 C 20.814774 17.245244 21.250001 17 22 17 z M 9.1621094 23.332031 C 2.1981094 28.772031 -0.89795313 36.906406 2.2480469 42.566406 C 3.5910469 44.982406 5.8914375 46.683281 8.8984375 47.488281 C 10.169438 47.828281 11.528453 47.996094 12.939453 47.996094 C 16.739453 47.996094 20.911031 46.787719 24.707031 44.511719 C 29.262758 41.780488 32.543671 37.933128 34.212891 33.978516 C 35.367764 33.923167 36.355158 33.449812 36.998047 32.726562 C 37.681319 31.957881 38 30.972222 38 30 C 38 29.027778 37.681319 28.042118 36.998047 27.273438 C 36.314774 26.504756 35.25 26 34 26 C 32.75 26 31.685226 26.504756 31.001953 27.273438 C 30.318681 28.042119 30 29.027778 30 30 C 30 30.972222 30.318681 31.957882 31.001953 32.726562 C 31.334027 33.100145 31.760237 33.407648 32.25 33.628906 C 30.681548 37.037695 27.715244 40.376565 23.677734 42.796875 C 18.927734 45.645875 13.596062 46.678594 9.4140625 45.558594 C 6.9420625 44.896594 5.0690938 43.526703 3.9960938 41.595703 C 1.4540938 37.022703 3.9149531 30.427766 9.5019531 25.634766 C 9.3569531 24.883766 9.2441094 24.114031 9.1621094 23.332031 z M 34 28 C 34.749999 28 35.185226 28.245244 35.501953 28.601562 C 35.81868 28.957881 36 29.472222 36 30 C 36 30.527778 35.81868 31.042118 35.501953 31.398438 C 35.185226 31.754756 34.749999 32 34 32 C 33.250001 32 32.814774 31.754756 32.498047 31.398438 C 32.18132 31.042119 32 30.527778 32 30 C 32 29.472222 32.18132 28.957882 32.498047 28.601562 C 32.814774 28.245244 33.250001 28 34 28 z M 18 34 C 18.749999 34 19.185226 34.245244 19.501953 34.601562 C 19.81868 34.957881 20 35.472222 20 36 C 20 36.527778 19.81868 37.042119 19.501953 37.398438 C 19.185226 37.754756 18.749999 38 18 38 C 17.250001 38 16.814774 37.754756 16.498047 37.398438 C 16.18132 37.042119 16 36.527778 16 36 C 16 35.472222 16.18132 34.957881 16.498047 34.601562 C 16.814774 34.245244 17.250001 34 18 34 z"/></svg>